HIERARCHY
ROOT hip
{
	OFFSET 0.000000 0.000000 0.000000 
	CHANNELS 6 Xposition Yposition Zposition Xrotation Zrotation Yrotation
	JOINT abdomen
	{
		OFFSET 0.000000 3.402643 0.000000 
		CHANNELS 3 Xrotation Zrotation Yrotation
		JOINT chest
		{
			OFFSET 0.000000 8.438565 -0.680529 
			CHANNELS 3 Xrotation Zrotation Yrotation
			JOINT neck
			{
				OFFSET 0.000000 10.207942 -0.272212 
				CHANNELS 3 Xrotation Zrotation Yrotation
				JOINT head
				{
					OFFSET 0.000000 3.130431 0.000000 
					CHANNELS 3 Xrotation Zrotation Yrotation
					End Site
					{
						OFFSET 0.000000 3.130435 0.000000 
					}
				}
			}
			JOINT lCollar
			{
				OFFSET 3.470700 6.669187 -0.816635 
				CHANNELS 3 Yrotation Zrotation Xrotation
				JOINT lShldr
				{
					OFFSET 3.198488 0.000000 0.000000 
					CHANNELS 3 Zrotation Yrotation Xrotation
					JOINT lForeArm
					{
						OFFSET 10.139888 0.000000 0.000000 
						CHANNELS 3 Yrotation Zrotation Xrotation
						JOINT lHand
						{
							OFFSET 8.370511 0.000000 0.000000 
							CHANNELS 3 Zrotation Yrotation Xrotation
							End Site
							{
								OFFSET 4.083176 0.000000 0.000000 
							}
						}
					}
				}
			}
			JOINT rCollar
			{
				OFFSET -3.470700 6.669187 -0.816635 
				CHANNELS 3 Yrotation Zrotation Xrotation
				JOINT rShldr
				{
					OFFSET -3.198488 0.000000 0.000000 
					CHANNELS 3 Zrotation Yrotation Xrotation
					JOINT rForeArm
					{
						OFFSET -10.139888 0.000000 0.000000 
						CHANNELS 3 Yrotation Zrotation Xrotation
						JOINT rHand
						{
							OFFSET -8.370511 0.000000 0.000000 
							CHANNELS 3 Zrotation Yrotation Xrotation
							End Site
							{
								OFFSET -4.083176 0.000000 0.000000 
							}
						}
					}
				}
			}
		}
	}
	JOINT lThigh
	{
		OFFSET 5.308129 -1.633274 1.361059 
		CHANNELS 3 Xrotation Zrotation Yrotation
		JOINT lShin
		{
			OFFSET -2.041588 -20.007561 0.000000 
			CHANNELS 3 Xrotation Zrotation Yrotation
			JOINT lFoot
			{
				OFFSET 0.000000 -19.190928 -1.224953 
				CHANNELS 3 Xrotation Yrotation Zrotation
				End Site
				{
					OFFSET 0.000000 -2.449906 4.627600 
				}
			}
		}
	}
	JOINT rThigh
	{
		OFFSET -5.308129 -1.633274 1.361059 
		CHANNELS 3 Xrotation Zrotation Yrotation
		JOINT rShin
		{
			OFFSET 2.041588 -20.007561 0.000000 
			CHANNELS 3 Xrotation Zrotation Yrotation
			JOINT rFoot
			{
				OFFSET 0.000000 -19.190928 -1.224953 
				CHANNELS 3 Xrotation Yrotation Zrotation
				End Site
				{
					OFFSET 0.000000 -2.449906 4.627600 
				}
			}
		}
	}
}
MOTION
Frames: 10
Frame Time: 0.033333
-0.311812 17.149645 -0.476618 3.710938 8.056641 114.962303 50.803108 -26.592688 -19.064880 -13.906250 -1.005859 -1.230640 51.063168 8.107644 2.471410 -69.033203 16.777344 2.841797 2.000000 -2.000000 0.000000 -74.707031 -17.675783 1.708984 -100.976967 0.681467 -2.793899 43.194565 43.864441 14.935658 -2.000000 2.000000 0.000000 45.361328 6.562500 -10.282086 99.890701 -0.880148 -3.079064 -40.721291 -44.018230 35.518497 -92.670883 7.684790 0.233616 69.762558 -2.096124 -5.021667 1.352175 8.825996 1.394165 -76.190292 -10.029199 -13.111068 43.954426 3.583917 3.416219 24.808786 9.080309 -5.942426 
-0.308234 17.622234 -0.489394 3.886719 8.046876 116.397858 50.899944 -26.890026 -19.963125 -14.980470 -2.187500 -0.820312 51.063168 8.107644 2.471410 -67.753906 17.626953 1.536161 2.000000 -2.000000 0.000000 -73.447266 -20.019531 3.492751 -98.548935 -0.135302 -3.215889 46.095432 42.227364 18.485283 -2.000000 2.000000 0.000000 48.769531 2.539063 -10.116755 99.539436 -0.860085 -3.087681 -39.133572 -42.724102 31.750629 -92.643723 7.284450 0.976823 70.135109 -1.862488 -4.923812 0.933145 6.958635 0.609405 -75.999886 -10.915985 -12.983512 44.299530 3.554281 3.422919 25.277800 7.699182 -7.045159 
-0.302753 18.055595 -0.498930 4.257813 7.871094 118.194702 51.112091 -27.152569 -20.557655 -15.332033 -2.695313 -0.576172 51.063168 8.107644 2.471410 -66.835945 18.144531 0.449219 2.000000 -2.000000 0.000000 -73.408203 -21.445314 6.568695 -94.636078 6.918345 -2.866122 47.185120 40.710144 19.092884 -2.000000 2.000000 0.000000 56.572269 -3.642578 -13.369763 98.846794 -0.634724 -3.094203 -33.222755 -41.671978 22.801960 -92.419327 6.386290 1.177692 71.028992 -2.174654 -4.697750 -0.132281 5.348835 0.218645 -75.640053 -12.342118 -12.839478 45.177807 3.505476 3.647827 25.422346 6.264696 -7.813127 
-0.296857 18.504578 -0.504954 4.589844 8.056641 120.185555 51.465176 -27.680927 -21.355896 -14.794922 -2.011719 -0.781250 51.063168 8.107644 2.471410 -66.835945 18.310545 -0.361328 2.000000 -2.000000 0.000000 -75.087891 -20.791018 10.396925 -94.295959 15.685245 -3.010833 46.634956 39.492474 16.747034 -2.000000 2.000000 0.000000 64.199219 -7.900391 -18.046875 97.782516 -0.770651 -3.111842 -26.866121 -41.177078 14.845276 -92.015709 5.311856 1.588987 71.564255 -2.321248 -4.844038 -1.256808 3.568294 -0.258755 -75.259979 -13.738984 -12.700088 45.705303 3.456527 3.515180 25.334414 4.918882 -8.202648 
-0.292007 18.937939 -0.507183 5.136719 8.046876 122.364655 52.095825 -28.450331 -22.045355 -13.896484 -0.498047 -1.093835 51.063168 8.107644 2.471410 -67.392578 17.968748 -0.615234 2.000000 -2.000000 0.000000 -77.333984 -19.599609 14.401024 -94.128845 15.498510 -3.192864 45.559006 38.154617 12.856986 -2.000000 2.000000 0.000000 71.894531 -8.017578 -25.332031 95.848984 -0.682907 -3.106768 -17.865976 -42.887238 7.664351 -91.389656 4.188437 2.541189 71.888329 -1.911633 -4.924305 -1.735625 2.275179 -0.746864 -74.704491 -14.989190 -12.577926 46.593838 3.407747 3.710903 25.389229 3.537231 -8.763134 
-0.289701 19.268774 -0.505344 5.498047 8.046876 124.356834 52.748981 -29.212896 -22.759182 -12.822267 0.996094 -1.679688 51.063168 8.107644 2.471410 -67.939453 17.802732 -0.722656 2.000000 -2.000000 0.000000 -79.541016 -17.792969 17.900391 -93.944893 15.485948 -3.241021 43.687912 37.165913 8.722782 -2.000000 2.000000 0.000000 79.697266 -5.478515 -32.802731 93.397888 -0.575664 -3.100564 -7.209703 -44.940826 0.036771 -90.846321 3.144065 2.555159 72.078659 -2.096463 -4.885561 -2.120574 0.552423 -0.704319 -74.162323 -16.081150 -11.687134 46.946209 3.522428 3.611624 26.015018 1.732205 -8.131625 
-0.288989 19.379051 -0.500280 5.859375 8.212891 125.831467 53.093452 -29.453432 -22.966639 -11.914063 1.816406 -1.923519 51.063168 8.107644 2.471410 -68.320313 17.626953 -0.781250 2.000000 -2.000000 0.000000 -81.162109 -16.777346 19.626089 -93.944893 15.485948 -3.241021 41.510632 37.390060 5.680248 -2.000000 2.000000 0.000000 81.123047 -3.427734 -34.785156 91.991402 -0.507982 -3.086872 -1.236901 -46.159492 -3.733398 -90.072960 2.206300 3.320036 71.698204 -1.725292 -4.953075 -2.262733 0.265698 -0.019483 -73.969170 -16.872683 -11.257273 47.464554 3.339500 3.596437 24.492702 1.775357 -7.003344 
-0.288024 19.355446 -0.493192 6.386719 8.554688 126.826180 53.193138 -29.193541 -23.006241 -11.406250 1.464844 -2.373047 51.063168 8.107644 2.471410 -68.671875 17.451170 -0.839844 2.000000 -2.000000 0.000000 -81.816406 -16.201174 16.784384 -93.944893 15.485948 -3.241021 37.288776 40.044350 4.386269 -2.000000 2.000000 0.000000 75.283203 -2.480469 -31.172297 91.639084 -0.334186 -3.047485 -3.282390 -46.797253 -0.940356 -89.170723 1.659151 3.450172 71.337524 -1.950787 -4.742776 -2.092823 0.604342 0.305023 -73.665825 -17.106964 -10.308065 47.818081 3.310180 3.621569 23.440826 1.552017 -5.738186 
-0.286957 19.166365 -0.484335 6.582032 8.906251 127.247597 53.327358 -28.104548 -22.994169 -11.074219 0.449219 -2.724533 51.063168 8.107644 2.471410 -69.052734 17.617186 0.068360 2.000000 -2.000000 0.000000 -81.611328 -16.250000 11.188675 -94.131485 15.323613 -3.170290 31.910387 44.561779 4.580699 -2.000000 2.000000 0.000000 65.605469 -1.083984 -25.019716 91.639557 -0.508546 -3.077126 -8.991755 -47.337833 4.684055 -88.088524 1.629882 3.947346 70.643875 -1.852638 -4.928403 -2.209414 0.677771 0.587761 -73.374252 -16.814783 -9.389018 47.818081 3.310180 3.621568 23.122978 1.397609 -4.552629 
-0.285937 18.914333 -0.473965 6.933594 9.248047 127.169540 53.211838 -27.451157 -22.670973 -10.742188 -0.546875 -3.046875 51.063168 8.107644 2.471410 -69.238281 18.281250 1.513672 2.000000 -2.000000 0.000000 -81.044922 -16.845703 7.838967 -94.273994 15.859574 -3.040582 28.359518 47.356529 4.142284 -2.000000 2.000000 0.000000 54.687496 1.357422 -18.750002 91.994995 -0.179736 -2.842988 -16.352678 -46.709587 11.651817 -87.214134 1.806100 3.952497 69.930756 -1.901237 -4.904705 -1.835751 0.897979 0.892941 -73.316017 -15.857852 -8.231803 47.645084 3.329859 3.770936 22.672758 1.266400 -3.740627 
